<svg width="145" height="47" viewBox="0 0 145 47" fill="none" xmlns="http://www.w3.org/2000/svg">
<path d="M50.7344 16.7891H57.2578C58.0547 16.7891 58.7474 16.875 59.3359 17.0469C59.9297 17.2135 60.4219 17.4453 60.8125 17.7422C61.2031 18.0391 61.4922 18.3932 61.6797 18.8047C61.8724 19.2109 61.9688 19.651 61.9688 20.125C61.9688 20.901 61.724 21.5807 61.2344 22.1641C61.7969 22.4974 62.2161 22.9297 62.4922 23.4609C62.7682 23.9922 62.9062 24.5964 62.9062 25.2734C62.9062 25.8411 62.8099 26.3542 62.6172 26.8125C62.4297 27.2708 62.1406 27.6641 61.75 27.9922C61.3646 28.3151 60.875 28.5651 60.2812 28.7422C59.6927 28.9141 58.9974 29 58.1953 29H50.7344V16.7891ZM58.2109 21.4766C58.4245 21.4766 58.6328 21.4844 58.8359 21.5C59.1849 21.1667 59.3594 20.7865 59.3594 20.3594C59.3594 19.9167 59.1849 19.5755 58.8359 19.3359C58.4922 19.0911 57.987 18.9688 57.3203 18.9688H53.2109V21.4766H58.2109ZM58.2578 26.8438C58.9245 26.8438 59.4297 26.7005 59.7734 26.4141C60.1224 26.1276 60.2969 25.724 60.2969 25.2031C60.2969 24.6823 60.1224 24.276 59.7734 23.9844C59.4297 23.6927 58.9245 23.5469 58.2578 23.5469H53.2109V26.8438H58.2578ZM65.1094 16.7891H67.6016V29H65.1094V16.7891ZM69.9297 22.7812C69.9297 21.9219 70.0911 21.1198 70.4141 20.375C70.737 19.625 71.2083 18.974 71.8281 18.4219C72.4479 17.8698 73.2083 17.4349 74.1094 17.1172C75.0156 16.7995 76.0521 16.6406 77.2188 16.6406C77.6406 16.6406 78.0625 16.6641 78.4844 16.7109C78.9115 16.7526 79.3307 16.8203 79.7422 16.9141C80.1589 17.0078 80.5625 17.1276 80.9531 17.2734C81.349 17.4141 81.724 17.5833 82.0781 17.7812L80.9375 19.6562C80.724 19.5312 80.4818 19.4193 80.2109 19.3203C79.9401 19.2161 79.6484 19.1302 79.3359 19.0625C79.0286 18.9896 78.7083 18.9349 78.375 18.8984C78.0469 18.862 77.7161 18.8438 77.3828 18.8438C76.612 18.8438 75.9245 18.9427 75.3203 19.1406C74.7161 19.3333 74.2057 19.6068 73.7891 19.9609C73.3724 20.3099 73.0547 20.7292 72.8359 21.2188C72.6172 21.7083 72.5078 22.2448 72.5078 22.8281C72.5078 23.4323 72.6224 23.987 72.8516 24.4922C73.0807 24.9974 73.4062 25.4323 73.8281 25.7969C74.25 26.1615 74.7604 26.4479 75.3594 26.6562C75.9583 26.8594 76.6276 26.9609 77.3672 26.9609C77.9557 26.9609 78.4948 26.8958 78.9844 26.7656C79.474 26.6302 79.901 26.4401 80.2656 26.1953C80.6302 25.9505 80.9271 25.6562 81.1562 25.3125C81.3854 24.9635 81.5365 24.5729 81.6094 24.1406H77.3438V22.1016H83.8359V22.1094L83.8438 22.1016C83.974 22.7266 84.013 23.3359 83.9609 23.9297C83.9141 24.5182 83.7786 25.0755 83.5547 25.6016C83.3359 26.1224 83.0339 26.6016 82.6484 27.0391C82.263 27.4766 81.8021 27.8542 81.2656 28.1719C80.7292 28.4844 80.1198 28.7292 79.4375 28.9062C78.7552 29.0781 78.0078 29.1641 77.1953 29.1641C76.0599 29.1641 75.0417 28.9974 74.1406 28.6641C73.2448 28.3307 72.4844 27.875 71.8594 27.2969C71.2344 26.7188 70.7552 26.0417 70.4219 25.2656C70.0938 24.4896 69.9297 23.6615 69.9297 22.7812ZM86.0469 22.8594C86.0469 21.9375 86.2161 21.0938 86.5547 20.3281C86.8932 19.5625 87.3672 18.9062 87.9766 18.3594C88.5911 17.8073 89.3255 17.3802 90.1797 17.0781C91.0391 16.776 91.9896 16.625 93.0312 16.625C94.0677 16.625 95.0156 16.776 95.875 17.0781C96.7344 17.3802 97.4688 17.8073 98.0781 18.3594C98.6927 18.9062 99.1693 19.5625 99.5078 20.3281C99.8464 21.0938 100.016 21.9375 100.016 22.8594C100.016 23.7865 99.8464 24.638 99.5078 25.4141C99.1693 26.1849 98.6927 26.849 98.0781 27.4062C97.4688 27.9635 96.7344 28.3984 95.875 28.7109C95.0156 29.0182 94.0677 29.1719 93.0312 29.1719C91.9896 29.1719 91.0391 29.0182 90.1797 28.7109C89.3255 28.3984 88.5911 27.9635 87.9766 27.4062C87.3672 26.849 86.8932 26.1849 86.5547 25.4141C86.2161 24.638 86.0469 23.7865 86.0469 22.8594ZM88.5234 22.8594C88.5234 23.4896 88.6354 24.0573 88.8594 24.5625C89.0885 25.0677 89.4036 25.5 89.8047 25.8594C90.2109 26.2135 90.6875 26.487 91.2344 26.6797C91.7865 26.8724 92.3854 26.9688 93.0312 26.9688C93.6771 26.9688 94.2734 26.8724 94.8203 26.6797C95.3724 26.487 95.849 26.2135 96.25 25.8594C96.651 25.5 96.9661 25.0677 97.1953 24.5625C97.4245 24.0573 97.5391 23.4896 97.5391 22.8594C97.5391 22.2292 97.4245 21.6641 97.1953 21.1641C96.9661 20.6641 96.651 20.2422 96.25 19.8984C95.849 19.5495 95.3724 19.2839 94.8203 19.1016C94.2734 18.9193 93.6771 18.8281 93.0312 18.8281C92.3854 18.8281 91.7865 18.9193 91.2344 19.1016C90.6875 19.2839 90.2109 19.5495 89.8047 19.8984C89.4036 20.2422 89.0885 20.6641 88.8594 21.1641C88.6354 21.6641 88.5234 22.2292 88.5234 22.8594Z" fill="white"/>
<path d="M102.766 16.7891H113.688V18.9609H105.242V22.1562H112.414V24.1953H105.242V29H102.766V16.7891ZM115.617 16.7891H118.094V23.5156C118.094 24.0677 118.169 24.5599 118.32 24.9922C118.471 25.4193 118.695 25.7812 118.992 26.0781C119.294 26.375 119.667 26.6016 120.109 26.7578C120.552 26.9089 121.068 26.9844 121.656 26.9844C122.24 26.9844 122.753 26.9089 123.195 26.7578C123.643 26.6016 124.016 26.375 124.312 26.0781C124.615 25.7812 124.841 25.4193 124.992 24.9922C125.143 24.5599 125.219 24.0677 125.219 23.5156V16.7891H127.695V23.8125C127.695 24.6146 127.56 25.3438 127.289 26C127.018 26.6562 126.625 27.2188 126.109 27.6875C125.594 28.1562 124.961 28.5182 124.211 28.7734C123.466 29.0286 122.615 29.1562 121.656 29.1562C120.698 29.1562 119.844 29.0286 119.094 28.7734C118.349 28.5182 117.719 28.1562 117.203 27.6875C116.688 27.2188 116.294 26.6562 116.023 26C115.753 25.3438 115.617 24.6146 115.617 23.8125V16.7891ZM130.703 16.7891H133.18L140.789 20.7734V16.7891H143.266V29H140.789V23.3984L133.18 19.4375V29H130.703V16.7891Z" fill="url(#paint0_linear_129_2)"/>
<path d="M25.7507 21.3356C25.9106 21.9116 26.0019 22.5167 26.0019 23.1451C26.0019 26.8048 23.0906 29.7721 19.5 29.7721C15.9094 29.7721 12.9981 26.8048 12.9981 23.1451C12.9981 19.4854 15.9094 16.5181 19.5 16.5181C20.1165 16.5181 20.7102 16.6112 21.2753 16.7741C20.5504 17.3734 20.0766 18.2752 20.0766 19.2992C20.0766 21.0971 21.5094 22.5574 23.2733 22.5574C24.278 22.5633 25.1628 22.0803 25.7507 21.3356ZM30.0035 39.8668C31.3564 40.8734 32.1556 41.9497 32.1556 42.8167C32.1556 45.1382 26.4928 47 19.5 47C12.5072 47 6.84441 45.1382 6.84441 42.8167C6.84441 41.9497 7.64359 40.8792 8.99649 39.8668C3.59631 36.3293 0 30.1619 0 23.1451C0 19.1305 1.18165 15.3951 3.20243 12.2649C1.78674 9.32087 1.48419 5.03281 6.4334 0C6.71882 2.94986 7.90618 4.8408 9.64725 6.02191C12.5414 4.28225 15.9037 3.26987 19.5 3.26987C23.0963 3.26987 26.4586 4.28225 29.3528 6.02191C31.0995 4.8408 32.2812 2.94405 32.5666 0C37.5158 5.03281 37.2133 9.32087 35.7976 12.2649C37.8126 15.3951 39 19.1305 39 23.1451C39 30.1619 35.4037 36.3293 30.0035 39.8668ZM31.7788 23.1451C31.7788 16.2446 26.2702 10.63 19.5 10.63C12.7298 10.63 7.22116 16.2446 7.22116 23.1451C7.22116 28.8586 11.0001 33.682 16.1434 35.1715L19.4943 41.0654L22.8451 35.1715C27.9941 33.682 31.7788 28.8586 31.7788 23.1451Z" fill="url(#paint1_linear_129_2)"/>
<defs>
<linearGradient id="paint0_linear_129_2" x1="145" y1="13" x2="95.7532" y2="29.2129" gradientUnits="userSpaceOnUse">
<stop stop-color="#FC08BC"/>
<stop offset="1" stop-color="#7D2EF2"/>
</linearGradient>
<linearGradient id="paint1_linear_129_2" x1="2.40325" y1="38.9597" x2="37.2484" y2="4.77186" gradientUnits="userSpaceOnUse">
<stop stop-color="#652AFF"/>
<stop offset="1" stop-color="#FF00B9"/>
</linearGradient>
</defs>
</svg>
